<!DOCTYPE svg PUBLIC "-//W3C//DTD SVG 20010904//EN" "http://www.w3.org/TR/2001/REC-SVG-20010904/DTD/svg10.dtd">
<svg version="1.0" xmlns="http://www.w3.org/2000/svg" width="768px" height="768px" viewBox="0 0 7680 7680" preserveAspectRatio="xMidYMid meet">
<g id="layer101" fill="#7696ba" stroke="none">
 <path d="M678 7379 c-16 -11 -28 -24 -28 -29 0 -14 271 -582 292 -612 l19 -28 2873 0 2873 0 20 23 c22 23 293 589 293 611 0 7 -10 22 -23 34 l-23 22 -3135 0 -3134 -1 -27 -20z"/>
 <path d="M1322 6478 c-7 -7 -12 -17 -12 -24 0 -21 180 -328 213 -361 21 -22 40 -33 60 -33 22 0 27 -4 23 -17 -70 -235 -88 -354 -93 -628 -4 -189 -1 -266 12 -360 52 -384 206 -765 429 -1063 95 -127 298 -337 416 -432 340 -271 771 -446 1209 -491 143 -15 461 -6 591 16 509 85 962 325 1312 694 276 291 458 622 557 1012 59 229 75 379 68 634 -5 223 -18 318 -68 513 -16 62 -29 115 -29 118 0 2 24 4 53 4 42 0 58 6 84 28 47 40 229 361 216 381 -9 14 -258 16 -2520 19 -1943 1 -2512 -1 -2521 -10z m833 -435 c-30 -76 -78 -241 -97 -335 -20 -99 -23 -141 -22 -348 0 -205 3 -248 23 -340 48 -226 138 -447 251 -619 303 -461 772 -751 1312 -810 859 -95 1666 446 1908 1279 51 175 64 277 65 495 0 122 -5 229 -13 275 -20 109 -68 291 -95 360 l-25 60 68 0 68 0 26 -72 c138 -387 140 -828 5 -1233 -191 -574 -640 -1023 -1214 -1214 -389 -129 -789 -133 -1180 -10 -591 186 -1051 639 -1249 1229 -62 184 -87 327 -93 535 -8 238 19 447 82 639 45 137 35 126 116 126 64 0 70 -2 64 -17z m1200 -70 l30 -88 -64 -176 -64 -175 -496 -68 c-505 -68 -552 -78 -510 -109 9 -7 241 -41 515 -76 l499 -65 44 -118 43 -119 -172 -494 c-172 -491 -191 -561 -136 -504 21 21 243 327 390 536 28 40 53 73 56 73 3 0 52 -127 109 -282 141 -385 181 -488 189 -489 47 -8 77 -4 91 10 9 9 77 181 150 381 74 201 137 371 141 379 8 16 6 19 280 -362 267 -372 267 -373 59 219 -88 252 -167 479 -176 503 -15 44 -14 46 26 155 l41 111 498 64 c273 35 508 68 521 73 24 9 24 9 5 28 -17 17 -91 30 -499 85 -264 36 -487 64 -496 62 -13 -4 -30 32 -81 172 -36 97 -62 181 -58 186 4 6 19 46 33 90 l25 80 518 0 518 0 28 -72 c180 -469 149 -974 -88 -1422 -173 -327 -421 -566 -759 -731 -262 -128 -557 -191 -826 -176 -693 38 -1283 465 -1527 1105 -39 101 -89 302 -102 411 -31 260 6 550 103 807 l31 83 541 0 540 0 30 -87z"/>
 <path d="M3143 2653 c-40 -41 -43 -49 -43 -99 0 -30 4 -54 10 -54 5 0 7 -7 4 -15 -4 -8 -2 -15 4 -15 5 0 7 -11 4 -25 -2 -14 0 -25 7 -25 5 0 8 -7 5 -15 -4 -8 -1 -15 5 -15 6 0 8 -7 5 -15 -4 -8 -1 -15 5 -15 6 0 8 -7 5 -15 -4 -8 -1 -15 5 -15 6 0 8 -7 5 -15 -4 -8 -2 -15 4 -15 6 0 8 -9 5 -20 -3 -11 0 -20 6 -20 5 0 8 -7 5 -15 -4 -8 -1 -15 5 -15 6 0 8 -6 5 -14 -3 -7 1 -20 9 -27 7 -8 12 -20 9 -27 -2 -6 1 -12 7 -12 6 0 8 -7 5 -15 -4 -8 -1 -15 5 -15 6 0 8 -7 5 -15 -4 -8 -1 -15 5 -15 6 0 8 -7 5 -15 -4 -8 -1 -15 5 -15 6 0 8 -7 5 -15 -4 -8 -2 -15 2 -15 5 0 9 -18 9 -40 0 -22 -4 -40 -9 -40 -5 0 -6 -3 -3 -7 9 -8 -22 -43 -38 -43 -7 0 -15 -7 -19 -15 -3 -8 -12 -15 -21 -15 -8 0 -15 -4 -15 -10 0 -5 -7 -10 -15 -10 -8 0 -27 -13 -42 -30 -14 -16 -32 -30 -40 -30 -7 0 -13 -4 -13 -10 0 -5 -9 -10 -20 -10 -10 0 -24 -9 -30 -20 -6 -11 -17 -20 -24 -20 -8 0 -16 -7 -20 -15 -3 -8 -12 -15 -20 -15 -7 0 -16 -7 -20 -15 -3 -8 -12 -15 -20 -15 -7 0 -16 -7 -20 -15 -3 -8 -11 -15 -18 -15 -7 0 -19 -9 -26 -20 -7 -11 -17 -20 -23 -20 -19 0 -61 -51 -55 -66 3 -8 1 -14 -4 -14 -14 0 -12 -67 1 -93 14 -26 59 -73 59 -61 0 4 6 0 14 -11 8 -12 20 -16 35 -12 11 3 21 1 21 -5 0 -6 13 -8 30 -6 17 3 30 1 30 -4 0 -5 117 -8 260 -8 264 1 294 -3 283 -36 -2 -7 2 -18 10 -25 7 -8 12 -20 9 -27 -2 -6 1 -12 7 -12 6 0 8 -7 5 -15 -4 -8 -1 -15 5 -15 6 0 8 -6 5 -14 -3 -7 1 -20 9 -27 7 -8 12 -20 9 -27 -2 -6 1 -12 6 -12 6 0 8 -9 5 -20 -3 -11 0 -20 6 -20 5 0 8 -7 5 -15 -4 -8 -1 -15 5 -15 6 0 8 -7 5 -15 -4 -8 -1 -15 5 -15 6 0 8 -7 5 -15 -4 -8 -2 -15 4 -15 6 0 8 -9 5 -20 -3 -11 0 -20 6 -20 5 0 8 -7 5 -15 -4 -8 -1 -15 5 -15 6 0 8 -7 5 -15 -4 -8 -1 -15 6 -15 6 0 9 -4 5 -9 -6 -11 15 -61 26 -61 4 0 5 -9 2 -19 -3 -11 4 -28 16 -40 12 -12 18 -21 14 -21 -4 0 7 -14 25 -30 32 -29 37 -30 127 -30 l94 0 47 46 c30 31 44 52 41 64 -3 11 2 21 10 24 7 3 13 11 11 18 -4 21 24 108 34 108 6 0 8 9 5 20 -3 11 -1 20 5 20 5 0 8 6 6 12 -3 7 2 19 9 27 8 7 12 20 9 27 -3 8 -1 14 5 14 6 0 9 7 5 15 -3 8 -1 15 5 15 6 0 9 7 5 15 -3 8 0 15 5 15 6 0 9 9 6 20 -3 11 -1 20 5 20 6 0 8 7 5 15 -4 8 -2 17 4 21 6 3 8 12 5 20 -3 8 -1 14 5 14 6 0 9 6 7 12 -3 7 1 19 9 26 7 7 13 22 13 33 0 11 4 18 9 14 6 -3 15 0 22 7 9 10 70 13 260 11 137 -1 249 2 249 6 0 4 16 5 35 3 20 -2 35 0 35 6 0 6 8 8 19 5 13 -3 33 10 65 41 41 42 46 51 46 92 0 25 -4 53 -9 63 -15 27 -88 101 -100 101 -6 0 -11 5 -11 10 0 6 -7 10 -15 10 -8 0 -15 5 -15 10 0 6 -6 10 -14 10 -8 0 -21 9 -29 20 -7 10 -25 24 -40 29 -15 6 -27 15 -27 21 0 5 -7 10 -15 10 -8 0 -15 5 -15 10 0 6 -7 10 -15 10 -8 0 -20 9 -27 20 -7 11 -19 20 -26 20 -7 0 -15 7 -18 15 -4 8 -12 15 -20 15 -8 0 -14 5 -14 10 0 6 -7 10 -15 10 -8 0 -15 5 -15 10 0 6 -6 10 -13 10 -16 0 -51 37 -62 65 -12 30 -13 55 -2 55 5 0 7 7 3 15 -3 8 -1 15 5 15 6 0 9 7 5 15 -3 8 -1 15 5 15 6 0 9 7 5 15 -3 8 -1 15 5 15 6 0 9 7 5 15 -3 8 -1 15 5 15 6 0 9 7 5 15 -3 8 -1 15 5 15 6 0 9 7 5 15 -3 8 0 15 5 15 6 0 9 9 6 20 -3 11 -1 20 5 20 6 0 8 7 4 15 -3 8 -1 15 5 15 6 0 9 6 7 12 -3 7 2 19 9 27 8 7 12 18 10 25 -2 6 3 17 10 25 8 8 12 22 10 32 -3 11 -1 19 5 19 6 0 8 7 4 15 -3 8 -1 15 5 15 7 0 9 12 7 30 -3 17 -1 30 4 30 4 0 8 24 8 53 0 100 -60 157 -167 157 -35 0 -63 -4 -63 -8 0 -4 -10 -9 -22 -9 -13 -1 -27 -8 -33 -15 -5 -7 -22 -19 -37 -25 -16 -7 -28 -17 -28 -23 0 -5 -7 -10 -15 -10 -8 0 -15 -4 -15 -10 0 -5 -7 -10 -15 -10 -8 0 -15 -4 -15 -10 0 -5 -6 -10 -13 -10 -7 0 -18 -9 -25 -20 -7 -11 -19 -20 -27 -20 -8 0 -15 -4 -15 -10 0 -5 -6 -10 -14 -10 -8 0 -16 -7 -20 -15 -3 -8 -12 -15 -20 -15 -7 0 -16 -7 -20 -15 -3 -8 -11 -15 -18 -15 -7 0 -19 -9 -26 -20 -7 -11 -18 -20 -26 -20 -8 0 -16 -7 -20 -15 -3 -8 -12 -15 -21 -15 -8 0 -15 -5 -15 -12 0 -6 -3 -8 -7 -5 -3 4 -12 2 -20 -4 -9 -8 -17 -8 -26 0 -8 6 -17 8 -20 4 -4 -3 -7 -1 -7 5 0 7 -7 12 -15 12 -8 0 -15 5 -15 10 0 6 -7 10 -15 10 -8 0 -15 5 -15 10 0 6 -6 10 -14 10 -8 0 -23 11 -34 25 -11 13 -31 29 -46 35 -14 5 -26 14 -26 20 0 5 -7 10 -15 10 -9 0 -18 7 -21 15 -4 8 -13 15 -20 15 -8 0 -17 7 -20 15 -4 8 -13 15 -20 15 -8 0 -17 7 -20 15 -4 8 -11 15 -18 15 -6 0 -19 9 -29 20 -10 12 -22 18 -27 15 -6 -3 -10 -1 -10 4 0 6 -7 11 -15 11 -7 0 -18 7 -23 16 -5 8 -16 16 -25 18 -9 1 -20 5 -23 9 -4 4 -39 7 -78 6 -71 0 -71 0 -113 -46z"/>
 </g>
<g id="layer102" fill="#eb7277" stroke="none">
 <path d="M3525 6058 c-2 -7 -9 -31 -16 -53 -6 -22 -15 -42 -18 -45 -4 -3 -51 -124 -104 -270 -62 -170 -97 -279 -97 -304 0 -22 22 -101 48 -175 68 -189 79 -219 127 -359 23 -67 48 -129 55 -137 6 -8 27 -58 46 -112 100 -290 253 -688 266 -691 10 -2 53 104 158 390 79 216 154 417 167 446 13 29 23 56 23 61 0 5 16 51 36 102 120 316 167 462 161 503 -6 35 -196 549 -228 614 l-20 42 -300 0 c-231 0 -301 -3 -304 -12z"/>
 <path d="M3174 2626 c-52 -52 -50 -60 65 -401 39 -115 71 -223 71 -238 0 -34 -21 -76 -51 -101 -12 -10 -83 -63 -158 -117 -318 -231 -311 -224 -311 -282 0 -49 13 -73 53 -94 28 -16 71 -19 327 -23 322 -5 326 -6 354 -65 8 -17 40 -109 71 -205 107 -334 116 -355 156 -375 16 -9 56 -15 93 -15 110 0 117 11 226 361 66 209 83 250 114 274 26 19 47 20 324 25 210 4 303 9 319 17 36 21 63 64 63 99 0 46 -26 72 -215 209 -308 223 -305 220 -305 295 0 21 34 139 76 266 42 126 79 253 81 284 5 49 2 60 -19 84 -19 22 -35 30 -74 33 -87 8 -93 5 -459 -267 -96 -72 -129 -86 -169 -71 -13 6 -107 71 -208 147 -230 171 -253 185 -328 191 -58 6 -60 5 -96 -31z"/>
 </g>

</svg>